<svg width="82" height="82" viewBox="0 0 82 82" fill="none" xmlns="http://www.w3.org/2000/svg">
<rect width="82" height="82" rx="41" fill="#0001FB"/>
<path d="M53.25 39.25H42.75V28.75C42.75 28.2859 42.5656 27.8408 42.2374 27.5126C41.9092 27.1844 41.4641 27 41 27C40.5359 27 40.0908 27.1844 39.7626 27.5126C39.4344 27.8408 39.25 28.2859 39.25 28.75V39.25H28.75C28.2859 39.25 27.8408 39.4344 27.5126 39.7626C27.1844 40.0908 27 40.5359 27 41C27 41.4641 27.1844 41.9092 27.5126 42.2374C27.8408 42.5656 28.2859 42.75 28.75 42.75H39.25V53.25C39.25 53.7141 39.4344 54.1592 39.7626 54.4874C40.0908 54.8156 40.5359 55 41 55C41.4641 55 41.9092 54.8156 42.2374 54.4874C42.5656 54.1592 42.75 53.7141 42.75 53.25V42.75H53.25C53.7141 42.75 54.1592 42.5656 54.4874 42.2374C54.8156 41.9092 55 41.4641 55 41C55 40.5359 54.8156 40.0908 54.4874 39.7626C54.1592 39.4344 53.7141 39.25 53.25 39.25Z" fill="white"/>
</svg>
