<svg width="214" height="438" viewBox="0 0 214 438" fill="none" xmlns="http://www.w3.org/2000/svg">
<g filter="url(#filter0_d_5682_7144)">
<circle cx="51" cy="271" r="41" fill="white"/>
</g>
<path d="M73.0799 271C73.0799 258.805 63.1944 248.92 50.9999 248.92C38.8055 248.92 28.9199 258.805 28.9199 271C28.9199 282.021 36.9943 291.155 47.5499 292.812V277.382H41.9437V271H47.5499V266.135C47.5499 260.602 50.8463 257.545 55.8898 257.545C58.3056 257.545 60.8324 257.976 60.8324 257.976V263.41H58.0481C55.3053 263.41 54.4499 265.112 54.4499 266.858V271H60.5737L59.5947 277.382H54.4499V292.812C65.0056 291.155 73.0799 282.021 73.0799 271Z" fill="#1877F2"/>
<path d="M59.5944 277.382L60.5734 271H54.4496V266.858C54.4496 265.112 55.305 263.41 58.0478 263.41H60.8321V257.976C60.8321 257.976 58.3053 257.545 55.8895 257.545C50.846 257.545 47.5496 260.602 47.5496 266.135V271H41.9434V277.382H47.5496V292.812C49.8357 293.169 52.1635 293.169 54.4496 292.812V277.382H59.5944Z" fill="white"/>
<g filter="url(#filter1_d_5682_7144)">
<circle cx="51" cy="159" r="41" fill="white"/>
</g>
<path d="M28.9199 159C28.9199 146.805 38.8055 136.92 50.9999 136.92C63.1944 136.92 73.0799 146.805 73.0799 159C73.0799 171.194 63.1944 181.08 50.9999 181.08C38.8055 181.08 28.9199 171.194 28.9199 159Z" fill="black"/>
<path d="M43.4388 163.003C43.4863 162.417 43.6652 161.849 43.9624 161.342C44.2596 160.834 44.6674 160.4 45.1554 160.072C46.6125 159.007 48.4286 159.608 48.4286 159.608V156.026C48.87 156.014 49.3114 156.042 49.7479 156.108V160.716C49.7479 160.716 47.9318 160.114 46.4747 161.18C45.9867 161.508 45.5789 161.942 45.2817 162.449C44.9845 162.957 44.8055 163.525 44.7581 164.111C44.7235 165.023 44.9849 165.921 45.5032 166.672C45.3484 166.589 45.1941 166.496 45.0341 166.39C44.5073 166.003 44.0855 165.491 43.807 164.899C43.5284 164.308 43.4018 163.656 43.4388 163.003ZM57.2619 149.402C56.4771 148.525 55.9515 147.447 55.744 146.289H57.0046C56.9502 147.85 57.518 149.369 58.5834 150.512L58.6112 150.539C58.1159 150.218 57.6631 149.836 57.2637 149.402H57.2619ZM63.3284 152.648V157.163C62.3861 157.12 61.4495 156.993 60.5299 156.782C59.5732 156.538 58.6554 156.16 57.8031 155.662C57.8031 155.662 57.0641 155.176 57.0081 155.143V164.472C56.9771 165.461 56.7908 166.439 56.456 167.37C55.6629 169.421 54.103 171.084 52.1061 172.006C51.0189 172.507 49.8364 172.767 48.6394 172.768C46.9806 172.763 45.3587 172.278 43.9696 171.371C43.4901 171.041 43.0429 170.665 42.6338 170.251L42.6447 170.262C44.0324 171.171 45.6552 171.657 47.3145 171.658C48.5114 171.657 49.694 171.397 50.7812 170.897C52.7781 169.974 54.338 168.312 55.1311 166.26C55.4659 165.329 55.6522 164.351 55.6831 163.362V154.039C55.744 154.072 56.4782 154.558 56.4782 154.558C57.3305 155.056 58.2483 155.433 59.205 155.678C60.1246 155.889 61.0612 156.016 62.0035 156.059V152.521C62.4356 152.632 62.8823 152.675 63.3276 152.648H63.3284Z" fill="#EE1D52"/>
<path d="M62.0038 152.515V156.053C61.0614 156.01 60.1249 155.883 59.2053 155.673C58.2486 155.428 57.3308 155.051 56.4785 154.552C56.4785 154.552 55.7395 154.066 55.6834 154.033V163.362C55.6524 164.351 55.4661 165.329 55.1314 166.26C54.3383 168.312 52.7783 169.974 50.7814 170.897C49.6943 171.397 48.5117 171.657 47.3148 171.658C45.656 171.653 44.034 171.168 42.6449 170.262L42.6341 170.251C42.4021 170.014 42.1828 169.766 41.9773 169.506C41.455 168.815 41.0348 168.053 40.7297 167.243V167.237C40.3974 166.267 40.2313 165.248 40.2385 164.223C40.2623 162.887 40.6089 161.577 41.2487 160.403C41.7589 159.498 42.4219 158.687 43.2083 158.008C43.9032 157.422 44.6904 156.956 45.5378 156.628C46.4542 156.242 47.436 156.035 48.4302 156.019V159.601C48.4302 159.601 46.6141 159 45.157 160.065C44.6364 160.408 44.2072 160.872 43.9065 161.418C43.6058 161.964 43.4426 162.575 43.4312 163.198C43.4198 163.821 43.5604 164.437 43.8409 164.994C44.1214 165.55 44.5333 166.03 45.0409 166.391C45.2009 166.496 45.3557 166.59 45.51 166.673C46.0419 167.381 46.7997 167.886 47.6579 168.105C48.5161 168.324 49.4233 168.243 50.2294 167.876C50.6971 167.672 51.1163 167.371 51.4597 166.993C51.8031 166.616 52.0629 166.17 52.222 165.685C52.3944 165.098 52.4635 164.485 52.4263 163.874V146.289H55.7382C55.9432 147.448 56.4691 148.526 57.2561 149.402C57.6581 149.834 58.1105 150.215 58.6037 150.539C59.1365 151.11 59.7616 151.588 60.4528 151.952C60.9459 152.201 61.4664 152.39 62.0038 152.517V152.515Z" fill="white"/>
<path d="M39.4092 166.149L39.4918 166.387C39.4809 166.359 39.4479 166.276 39.4092 166.149Z" fill="#69C9D0"/>
<path d="M45.537 156.633C44.689 156.96 43.9016 157.426 43.2075 158.013C42.4194 158.693 41.7562 159.506 41.2479 160.414C40.6072 161.587 40.2605 162.898 40.2377 164.234C40.2328 165.26 40.3988 166.278 40.7289 167.249V167.254C41.0353 168.064 41.4553 168.826 41.9765 169.517C42.182 169.777 42.4013 170.026 42.6333 170.262C41.8855 169.744 41.2178 169.119 40.6515 168.407C40.13 167.721 39.7116 166.963 39.4096 166.155V166.145C39.0742 165.174 38.908 164.152 38.9184 163.125C38.9423 161.789 39.2888 160.478 39.9286 159.305C40.4369 158.397 41.1001 157.584 41.8882 156.904C42.782 156.14 43.828 155.576 44.9567 155.247C46.0855 154.919 47.2712 154.835 48.4351 155V156.026C47.439 156.042 46.4552 156.248 45.537 156.635V156.633Z" fill="#69C9D0"/>
<path d="M55.7438 146.289H52.432V163.875C52.4664 164.486 52.3973 165.098 52.2276 165.686C52.0659 166.169 51.8052 166.614 51.4621 166.991C51.119 167.368 50.7011 167.67 50.235 167.877C49.6192 168.176 48.9327 168.3 48.2511 168.235C47.5694 168.17 46.9189 167.918 46.3711 167.507C46.042 167.281 45.7528 167.002 45.5156 166.681C46.0329 166.967 46.6115 167.124 47.2025 167.14C47.7934 167.155 48.3793 167.027 48.9105 166.768C49.3777 166.563 49.7966 166.262 50.1398 165.884C50.4831 165.507 50.7432 165.061 50.9032 164.577C51.0755 163.99 51.1447 163.377 51.1075 162.766V145.179H55.6834C55.6502 145.55 55.6705 145.924 55.7438 146.289ZM62.0034 151.538V152.515C60.6947 152.219 59.508 151.53 58.6032 150.539C58.7745 150.649 58.9453 150.749 59.1275 150.843C60.0125 151.313 61.0016 151.552 62.0034 151.538V151.538Z" fill="#69C9D0"/>
<g filter="url(#filter2_d_5682_7144)">
<circle cx="51" cy="47" r="41" fill="white"/>
</g>
<g clip-path="url(#clip0_5682_7144)">
<path d="M38.4072 114.275C64.6062 114.275 85.8447 93.0364 85.8447 66.8374C85.8447 40.6384 64.6062 19.3999 38.4072 19.3999C12.2082 19.3999 -9.03027 40.6384 -9.03027 66.8374C-9.03027 93.0364 12.2082 114.275 38.4072 114.275Z" fill="url(#paint0_radial_5682_7144)"/>
<path d="M38.4073 61.8351C66.7022 61.8351 89.6398 38.8975 89.6398 10.6026C89.6398 -17.6923 66.7022 -40.6299 38.4073 -40.6299C10.1124 -40.6299 -12.8252 -17.6923 -12.8252 10.6026C-12.8252 38.8975 10.1124 61.8351 38.4073 61.8351Z" fill="url(#paint1_radial_5682_7144)"/>
<path d="M33.7054 193.628C69.0751 193.628 97.7478 164.955 97.7478 129.586C97.7478 94.2162 69.0751 65.5435 33.7054 65.5435C-1.66418 65.5435 -30.3369 94.2162 -30.3369 129.586C-30.3369 164.955 -1.66418 193.628 33.7054 193.628Z" fill="url(#paint2_radial_5682_7144)"/>
<path d="M38.4073 61.8351C66.7022 61.8351 89.6398 38.8975 89.6398 10.6026C89.6398 -17.6923 66.7022 -40.6299 38.4073 -40.6299C10.1124 -40.6299 -12.8252 -17.6923 -12.8252 10.6026C-12.8252 38.8975 10.1124 61.8351 38.4073 61.8351Z" fill="url(#paint3_radial_5682_7144)"/>
<path d="M38.4073 61.8351C66.7022 61.8351 89.6398 38.8975 89.6398 10.6026C89.6398 -17.6923 66.7022 -40.6299 38.4073 -40.6299C10.1124 -40.6299 -12.8252 -17.6923 -12.8252 10.6026C-12.8252 38.8975 10.1124 61.8351 38.4073 61.8351Z" fill="url(#paint4_radial_5682_7144)"/>
<path d="M33.7054 81.1584C69.0751 81.1584 97.7478 52.4857 97.7478 17.1161C97.7478 -18.2535 69.0751 -46.9263 33.7054 -46.9263C-1.66418 -46.9263 -30.3369 -18.2535 -30.3369 17.1161C-30.3369 52.4857 -1.66418 81.1584 33.7054 81.1584Z" fill="url(#paint5_radial_5682_7144)"/>
</g>
<path d="M57.2104 42.5149C58.163 42.5149 58.9354 41.7426 58.9354 40.7899C58.9354 39.8373 58.163 39.0649 57.2104 39.0649C56.2577 39.0649 55.4854 39.8373 55.4854 40.7899C55.4854 41.7426 56.2577 42.5149 57.2104 42.5149Z" fill="white"/>
<path d="M51.0005 41.48C49.9087 41.48 48.8415 41.8037 47.9337 42.4103C47.026 43.0168 46.3185 43.8789 45.9007 44.8876C45.4829 45.8962 45.3735 47.0061 45.5865 48.0769C45.7995 49.1477 46.3253 50.1312 47.0972 50.9032C47.8692 51.6752 48.8528 52.2009 49.9236 52.4139C50.9943 52.6269 52.1042 52.5176 53.1129 52.0998C54.1215 51.682 54.9836 50.9745 55.5902 50.0667C56.1967 49.159 56.5205 48.0917 56.5205 47C56.5205 45.536 55.9389 44.132 54.9037 43.0968C53.8685 42.0615 52.4645 41.48 51.0005 41.48ZM51.0005 49.76C50.4546 49.76 49.921 49.5981 49.4671 49.2948C49.0132 48.9916 48.6595 48.5605 48.4506 48.0562C48.2417 47.5519 48.187 46.9969 48.2935 46.4615C48.4 45.9261 48.6629 45.4344 49.0489 45.0484C49.4349 44.6624 49.9266 44.3995 50.462 44.293C50.9974 44.1865 51.5524 44.2412 52.0567 44.4501C52.561 44.659 52.9921 45.0127 53.2953 45.4666C53.5986 45.9205 53.7605 46.4541 53.7605 47C53.7605 47.732 53.4697 48.434 52.9521 48.9516C52.4345 49.4692 51.7325 49.76 51.0005 49.76Z" fill="white"/>
<path fill-rule="evenodd" clip-rule="evenodd" d="M44.1001 37.3401C42.5758 37.3401 41.3401 38.5758 41.3401 40.1001V53.9001C41.3401 55.4244 42.5758 56.6601 44.1001 56.6601H57.9001C59.4244 56.6601 60.6601 55.4244 60.6601 53.9001V40.1001C60.6601 38.5758 59.4244 37.3401 57.9001 37.3401H44.1001ZM38.5801 40.1001C38.5801 37.0515 41.0515 34.5801 44.1001 34.5801H57.9001C60.9487 34.5801 63.4201 37.0515 63.4201 40.1001V53.9001C63.4201 56.9487 60.9487 59.4201 57.9001 59.4201H44.1001C41.0515 59.4201 38.5801 56.9487 38.5801 53.9001V40.1001Z" fill="white"/>
<g filter="url(#filter3_d_5682_7144)">
<circle cx="51" cy="383" r="41" fill="white"/>
</g>
<path fill-rule="evenodd" clip-rule="evenodd" d="M64.6966 372.94C65.323 372.94 65.9353 372.755 66.4561 372.407C66.9769 372.059 67.3829 371.564 67.6226 370.985C67.8623 370.407 67.9251 369.77 67.803 369.155C67.6808 368.541 67.3793 367.977 66.9364 367.534C66.4936 367.091 65.9293 366.789 65.315 366.667C64.7007 366.545 64.0639 366.607 63.4851 366.847C62.9064 367.086 62.4117 367.492 62.0636 368.013C61.7154 368.534 61.5295 369.146 61.5294 369.772C61.5293 370.188 61.6112 370.6 61.7703 370.984C61.9295 371.369 62.1628 371.718 62.4569 372.012C62.751 372.306 63.1001 372.54 63.4844 372.699C63.8687 372.858 64.2806 372.94 64.6966 372.94ZM42.2578 371.974L51.9748 362.257C52.3562 361.876 52.809 361.575 53.3071 361.37C53.8052 361.165 54.3388 361.061 54.8775 361.063H69.289C69.8303 361.061 70.3666 361.166 70.867 361.372C71.3674 361.578 71.8221 361.882 72.2048 362.264C72.5875 362.647 72.8907 363.102 73.0969 363.602C73.3031 364.103 73.4082 364.639 73.4063 365.18V379.592C73.4092 380.132 73.3031 380.668 73.0944 381.167C72.8857 381.666 72.5787 382.117 72.1917 382.495L62.4905 392.206L42.2578 371.974Z" fill="#4285F4"/>
<path fill-rule="evenodd" clip-rule="evenodd" d="M62.4906 392.206L50.5154 404.192C49.7368 404.963 48.6875 405.399 47.5918 405.406C47.0518 405.405 46.5175 405.296 46.0194 405.088C45.5213 404.88 45.0691 404.575 44.6887 404.192L30.2771 389.78C29.8901 389.403 29.5831 388.951 29.3744 388.452C29.1658 387.953 29.0597 387.418 29.0626 386.877C29.0623 386.334 29.1695 385.796 29.3779 385.294C29.5864 384.792 29.892 384.337 30.2771 383.954L42.257 371.974L62.4906 392.206Z" fill="#34A853"/>
<path fill-rule="evenodd" clip-rule="evenodd" d="M37.2709 396.774L30.2771 389.78C29.8901 389.402 29.5831 388.951 29.3744 388.452C29.1658 387.953 29.0597 387.418 29.0626 386.877C29.0623 386.334 29.1695 385.796 29.378 385.294C29.5864 384.792 29.892 384.337 30.2771 383.954L42.257 371.974L52.1637 381.881L37.2709 396.774Z" fill="#FBBC05"/>
<path fill-rule="evenodd" clip-rule="evenodd" d="M71.9853 362.06C71.2364 361.413 70.2789 361.059 69.2895 361.063H54.8775C54.3388 361.061 53.805 361.165 53.3068 361.37C52.8087 361.575 52.3558 361.876 51.9744 362.257L42.2578 371.974L52.1663 381.88L62.2563 371.79C61.7543 371.183 61.4969 370.41 61.5343 369.622C61.5716 368.835 61.9012 368.09 62.4585 367.533C63.0158 366.976 63.7608 366.646 64.5481 366.609C65.3354 366.571 66.1083 366.829 66.7159 367.331L71.9853 362.06Z" fill="#EA4335"/>
<path d="M52.1586 389.437C55.712 389.437 58.5925 386.557 58.5925 383.003C58.5925 379.45 55.712 376.569 52.1586 376.569C48.6052 376.569 45.7246 379.45 45.7246 383.003C45.7246 386.557 48.6052 389.437 52.1586 389.437Z" fill="#4285F4"/>
<path fill-rule="evenodd" clip-rule="evenodd" d="M60.9235 381.111H52.3668V384.782H57.2922C56.8332 387.115 54.913 388.454 52.3668 388.454C50.9105 388.404 49.5302 387.791 48.5174 386.744C47.5046 385.696 46.9384 384.296 46.9384 382.839C46.9384 381.381 47.5046 379.981 48.5174 378.934C49.5302 377.886 50.9105 377.273 52.3668 377.224C53.6071 377.225 54.8061 377.669 55.7477 378.476L58.4191 375.712C56.7699 374.191 54.6104 373.343 52.3668 373.336C47.2743 373.336 43.1836 377.567 43.1836 382.839C43.1836 388.11 47.2743 392.341 52.3668 392.341C56.9584 392.341 61.1325 388.886 61.1325 382.839C61.1248 382.257 61.0547 381.678 60.9235 381.111Z" fill="white"/>
<g filter="url(#filter4_d_5682_7144)">
<circle cx="163" cy="103" r="41" fill="white"/>
</g>
<g clip-path="url(#clip1_5682_7144)">
<path fill-rule="evenodd" clip-rule="evenodd" d="M164.403 104.96C163.66 106.442 162.388 107.396 161.01 107.718C160.802 107.718 160.483 107.823 160.164 107.823C157.835 107.823 156.458 106.021 156.458 103.373C156.458 99.979 158.47 98.392 161.01 97.647C162.388 97.33 163.98 97.223 165.568 97.223V98.496C165.568 100.933 165.673 102.839 164.403 104.96ZM165.568 92.352C164.191 92.457 162.599 92.562 161.01 92.77C158.575 93.092 156.14 93.516 154.13 94.47C150.21 96.06 147.56 99.45 147.56 104.429C147.56 110.686 151.584 113.862 156.673 113.862C158.366 113.862 159.743 113.648 161.01 113.334C163.028 112.696 164.719 111.53 166.731 109.409C167.897 110.999 168.218 111.744 170.228 113.439C170.758 113.648 171.288 113.648 171.709 113.334C172.982 112.272 175.209 110.364 176.372 109.304C176.902 108.881 176.798 108.244 176.476 107.718C175.313 106.233 174.145 104.96 174.145 102.099V92.561C174.145 88.535 174.467 84.825 171.5 82.072C169.065 79.85 165.25 79 162.283 79H161.01C155.612 79.313 149.894 81.646 148.618 88.323C148.406 89.173 149.044 89.489 149.468 89.593L155.4 90.336C156.035 90.229 156.354 89.698 156.458 89.173C156.986 86.841 158.894 85.675 161.01 85.46H161.437C162.709 85.46 164.087 85.991 164.826 87.053C165.673 88.323 165.568 90.02 165.568 91.505V92.352Z" fill="#343B45"/>
<path fill-rule="evenodd" clip-rule="evenodd" d="M186.994 114.946V114.944C186.972 114.444 186.867 114.063 186.659 113.746L186.636 113.716L186.611 113.684C186.399 113.453 186.196 113.365 185.976 113.269C185.318 113.015 184.361 112.879 183.21 112.877C182.383 112.877 181.471 112.956 180.554 113.157L180.551 113.094L179.628 113.402L179.611 113.41L179.089 113.58V113.602C178.492 113.85 177.927 114.167 177.405 114.548C177.083 114.788 176.818 115.108 176.803 115.596C176.803 115.739 176.834 115.88 176.895 116.01C176.955 116.139 177.043 116.254 177.153 116.346C177.273 116.442 177.411 116.512 177.559 116.551C177.708 116.591 177.862 116.6 178.014 116.578L178.059 116.576L178.093 116.57C178.545 116.474 179.203 116.409 179.973 116.302C180.633 116.228 181.333 116.175 181.94 116.175C182.369 116.172 182.755 116.203 183.02 116.259C183.134 116.28 183.245 116.317 183.348 116.369C183.369 116.456 183.377 116.546 183.373 116.635C183.379 117.143 183.165 118.086 182.868 119.007C182.58 119.927 182.23 120.85 181.999 121.463C181.938 121.611 181.907 121.769 181.906 121.929C181.9 122.175 182.002 122.474 182.216 122.672C182.426 122.869 182.696 122.948 182.922 122.948H182.933C183.272 122.945 183.56 122.81 183.808 122.615C186.151 120.509 186.966 117.143 187 115.248L186.994 114.946ZM180.049 117.866C179.802 117.865 179.558 117.92 179.335 118.026C179.078 118.128 178.815 118.247 178.567 118.352L178.203 118.504L177.729 118.694V118.699C172.579 120.789 167.169 122.014 162.162 122.121C161.978 122.127 161.792 122.127 161.614 122.127C153.74 122.132 147.317 118.479 140.837 114.879C140.627 114.764 140.392 114.702 140.152 114.698C139.861 114.698 139.562 114.808 139.344 115.011C139.235 115.115 139.148 115.24 139.089 115.378C139.03 115.516 139 115.665 139 115.816C138.997 116.208 139.209 116.57 139.505 116.804C145.587 122.087 152.253 126.994 161.22 127C161.395 127 161.573 126.994 161.75 126.992C167.454 126.864 173.903 124.936 178.91 121.791L178.94 121.771C179.612 121.37 180.256 120.925 180.868 120.438C181.252 120.153 181.518 119.707 181.518 119.244C181.501 118.422 180.803 117.866 180.05 117.866H180.049Z" fill="#FF9A00"/>
</g>
<g filter="url(#filter5_d_5682_7144)">
<circle cx="163" cy="215" r="41" fill="white"/>
</g>
<path d="M144.886 210.025C139.19 210.025 138.979 214.449 139.002 215.603C139.002 215.603 138.72 220.78 144.744 220.78C149.922 220.78 150.169 217.532 150.169 217.532H147.792C147.792 217.532 147.333 219.321 144.756 219.274C141.45 219.215 141.32 216.003 141.32 216.003H150.487C150.487 216.014 151.181 210.025 144.886 210.025ZM141.391 214.438C141.391 214.438 141.556 211.543 144.827 211.531C148.086 211.531 148.086 214.438 148.086 214.438H141.391Z" fill="#EE3B3F"/>
<path d="M156.853 210.024C153.993 210.013 152.758 211.719 152.758 211.719V206H150.463L150.498 218.097C150.498 218.097 150.487 219.509 150.404 220.438H152.628L152.722 219.085C152.722 219.085 153.758 220.791 156.794 220.791C159.83 220.791 162.23 218.92 162.289 215.449C162.372 211.978 159.724 210.036 156.853 210.024ZM156.335 219.238C152.722 219.285 152.781 215.402 152.781 215.402C152.781 215.402 152.652 211.672 156.335 211.578C160.018 211.484 159.9 215.484 159.9 215.484C159.9 215.484 159.947 219.191 156.335 219.238Z" fill="#0468B2"/>
<path d="M172.904 218.038C172.904 216.473 172.951 215.073 172.904 214.096C172.845 212.955 172.951 210.201 168.009 209.989C168.009 209.989 163.278 209.554 162.784 213.084H165.208C165.208 213.084 165.396 211.472 167.856 211.519C170.185 211.566 170.609 212.707 170.597 214.108C170.597 214.108 168.609 214.119 167.938 214.119C166.738 214.119 162.549 214.261 162.148 216.814C161.678 219.85 164.396 220.803 166.514 220.791C168.632 220.78 169.844 220.144 170.75 219.003L170.844 220.415L172.951 220.403C172.951 220.403 172.904 219.603 172.904 218.038ZM166.914 219.321C166.914 219.321 164.62 219.321 164.478 217.485C164.337 215.52 168.02 215.637 168.02 215.637H170.621C170.621 215.637 171.033 219.368 166.914 219.321Z" fill="#F7AB1B"/>
<path d="M171.655 210.413H174.315L178.21 218.167L182.105 210.413H184.517L177.468 224.239H174.891L176.939 220.403L171.655 210.413Z" fill="#6BB745"/>
<path d="M185.412 210.966V210.683H185.317V210.577H185.412V210.424H185.576V210.577H185.765V210.683H185.576V210.954C185.576 211.001 185.612 211.024 185.659 211.024C185.694 211.024 185.729 211.013 185.753 211.001V211.107C185.717 211.119 185.67 211.13 185.612 211.13C185.494 211.119 185.412 211.083 185.412 210.966ZM185.929 210.566H186.094V210.648C186.141 210.601 186.2 210.554 186.306 210.554C186.4 210.554 186.482 210.589 186.518 210.648C186.576 210.589 186.647 210.554 186.753 210.554C186.906 210.554 187 210.624 187 210.766V211.119H186.835V210.813C186.835 210.73 186.788 210.683 186.694 210.683C186.612 210.683 186.541 210.73 186.541 210.813V211.119H186.376V210.813C186.376 210.73 186.318 210.683 186.235 210.683C186.141 210.683 186.082 210.73 186.082 210.813V211.119H185.918V210.566H185.929Z" fill="#231F20"/>
<g filter="url(#filter6_d_5682_7144)">
<circle cx="163" cy="327" r="41" fill="white"/>
</g>
<path d="M163.376 319.159C164.5 319.159 165.426 318.574 165.551 317.818L166.662 305.26C166.662 304.019 165.207 303 163.379 303C161.553 303 160.1 304.019 160.1 305.26L161.21 317.818C161.332 318.574 162.258 319.159 163.379 319.159H163.376ZM156.588 323.081C157.153 322.108 157.11 321.015 156.515 320.529L146.193 313.289C145.12 312.667 143.511 313.415 142.598 314.999C141.681 316.581 141.844 318.347 142.914 318.969L154.344 324.291C155.058 324.556 156.032 324.046 156.592 323.074L156.588 323.081ZM170.169 323.074C170.732 324.047 171.701 324.557 172.417 324.292L183.846 318.97C184.923 318.348 185.076 316.581 184.168 315C183.251 313.417 181.639 312.668 180.568 313.289L170.246 320.53C169.655 321.015 169.611 322.109 170.172 323.082L170.169 323.074ZM163.376 334.846C164.5 334.846 165.426 335.426 165.551 336.182L166.662 348.738C166.662 349.983 165.207 351 163.379 351C161.553 351 160.1 349.983 160.1 348.738L161.21 336.182C161.332 335.426 162.258 334.846 163.379 334.846H163.376ZM170.169 330.922C170.732 329.948 171.701 329.442 172.417 329.71L183.846 335.028C184.923 335.65 185.076 337.419 184.168 339.002C183.251 340.579 181.639 341.331 180.568 340.71L170.246 333.476C169.655 332.987 169.611 331.892 170.172 330.92H170.168M156.588 330.921C157.153 331.892 157.11 332.987 156.515 333.477L146.193 340.711C145.12 341.331 143.511 340.58 142.598 339.003C141.681 337.419 141.844 335.651 142.914 335.029L154.344 329.711C155.058 329.443 156.032 329.948 156.592 330.923H156.588" fill="#FDBB30"/>
<defs>
<filter id="filter0_d_5682_7144" x="0" y="224" width="102" height="102" filterUnits="userSpaceOnUse" color-interpolation-filters="sRGB">
<feFlood flood-opacity="0" result="BackgroundImageFix"/>
<feColorMatrix in="SourceAlpha" type="matrix" values="0 0 0 0 0 0 0 0 0 0 0 0 0 0 0 0 0 0 127 0" result="hardAlpha"/>
<feOffset dy="4"/>
<feGaussianBlur stdDeviation="5"/>
<feComposite in2="hardAlpha" operator="out"/>
<feColorMatrix type="matrix" values="0 0 0 0 0 0 0 0 0 0 0 0 0 0 0 0 0 0 0.1 0"/>
<feBlend mode="normal" in2="BackgroundImageFix" result="effect1_dropShadow_5682_7144"/>
<feBlend mode="normal" in="SourceGraphic" in2="effect1_dropShadow_5682_7144" result="shape"/>
</filter>
<filter id="filter1_d_5682_7144" x="0" y="112" width="102" height="102" filterUnits="userSpaceOnUse" color-interpolation-filters="sRGB">
<feFlood flood-opacity="0" result="BackgroundImageFix"/>
<feColorMatrix in="SourceAlpha" type="matrix" values="0 0 0 0 0 0 0 0 0 0 0 0 0 0 0 0 0 0 127 0" result="hardAlpha"/>
<feOffset dy="4"/>
<feGaussianBlur stdDeviation="5"/>
<feComposite in2="hardAlpha" operator="out"/>
<feColorMatrix type="matrix" values="0 0 0 0 0 0 0 0 0 0 0 0 0 0 0 0 0 0 0.1 0"/>
<feBlend mode="normal" in2="BackgroundImageFix" result="effect1_dropShadow_5682_7144"/>
<feBlend mode="normal" in="SourceGraphic" in2="effect1_dropShadow_5682_7144" result="shape"/>
</filter>
<filter id="filter2_d_5682_7144" x="0" y="0" width="102" height="102" filterUnits="userSpaceOnUse" color-interpolation-filters="sRGB">
<feFlood flood-opacity="0" result="BackgroundImageFix"/>
<feColorMatrix in="SourceAlpha" type="matrix" values="0 0 0 0 0 0 0 0 0 0 0 0 0 0 0 0 0 0 127 0" result="hardAlpha"/>
<feOffset dy="4"/>
<feGaussianBlur stdDeviation="5"/>
<feComposite in2="hardAlpha" operator="out"/>
<feColorMatrix type="matrix" values="0 0 0 0 0 0 0 0 0 0 0 0 0 0 0 0 0 0 0.1 0"/>
<feBlend mode="normal" in2="BackgroundImageFix" result="effect1_dropShadow_5682_7144"/>
<feBlend mode="normal" in="SourceGraphic" in2="effect1_dropShadow_5682_7144" result="shape"/>
</filter>
<filter id="filter3_d_5682_7144" x="0" y="336" width="102" height="102" filterUnits="userSpaceOnUse" color-interpolation-filters="sRGB">
<feFlood flood-opacity="0" result="BackgroundImageFix"/>
<feColorMatrix in="SourceAlpha" type="matrix" values="0 0 0 0 0 0 0 0 0 0 0 0 0 0 0 0 0 0 127 0" result="hardAlpha"/>
<feOffset dy="4"/>
<feGaussianBlur stdDeviation="5"/>
<feComposite in2="hardAlpha" operator="out"/>
<feColorMatrix type="matrix" values="0 0 0 0 0 0 0 0 0 0 0 0 0 0 0 0 0 0 0.1 0"/>
<feBlend mode="normal" in2="BackgroundImageFix" result="effect1_dropShadow_5682_7144"/>
<feBlend mode="normal" in="SourceGraphic" in2="effect1_dropShadow_5682_7144" result="shape"/>
</filter>
<filter id="filter4_d_5682_7144" x="112" y="56" width="102" height="102" filterUnits="userSpaceOnUse" color-interpolation-filters="sRGB">
<feFlood flood-opacity="0" result="BackgroundImageFix"/>
<feColorMatrix in="SourceAlpha" type="matrix" values="0 0 0 0 0 0 0 0 0 0 0 0 0 0 0 0 0 0 127 0" result="hardAlpha"/>
<feOffset dy="4"/>
<feGaussianBlur stdDeviation="5"/>
<feComposite in2="hardAlpha" operator="out"/>
<feColorMatrix type="matrix" values="0 0 0 0 0 0 0 0 0 0 0 0 0 0 0 0 0 0 0.1 0"/>
<feBlend mode="normal" in2="BackgroundImageFix" result="effect1_dropShadow_5682_7144"/>
<feBlend mode="normal" in="SourceGraphic" in2="effect1_dropShadow_5682_7144" result="shape"/>
</filter>
<filter id="filter5_d_5682_7144" x="112" y="168" width="102" height="102" filterUnits="userSpaceOnUse" color-interpolation-filters="sRGB">
<feFlood flood-opacity="0" result="BackgroundImageFix"/>
<feColorMatrix in="SourceAlpha" type="matrix" values="0 0 0 0 0 0 0 0 0 0 0 0 0 0 0 0 0 0 127 0" result="hardAlpha"/>
<feOffset dy="4"/>
<feGaussianBlur stdDeviation="5"/>
<feComposite in2="hardAlpha" operator="out"/>
<feColorMatrix type="matrix" values="0 0 0 0 0 0 0 0 0 0 0 0 0 0 0 0 0 0 0.1 0"/>
<feBlend mode="normal" in2="BackgroundImageFix" result="effect1_dropShadow_5682_7144"/>
<feBlend mode="normal" in="SourceGraphic" in2="effect1_dropShadow_5682_7144" result="shape"/>
</filter>
<filter id="filter6_d_5682_7144" x="112" y="280" width="102" height="102" filterUnits="userSpaceOnUse" color-interpolation-filters="sRGB">
<feFlood flood-opacity="0" result="BackgroundImageFix"/>
<feColorMatrix in="SourceAlpha" type="matrix" values="0 0 0 0 0 0 0 0 0 0 0 0 0 0 0 0 0 0 127 0" result="hardAlpha"/>
<feOffset dy="4"/>
<feGaussianBlur stdDeviation="5"/>
<feComposite in2="hardAlpha" operator="out"/>
<feColorMatrix type="matrix" values="0 0 0 0 0 0 0 0 0 0 0 0 0 0 0 0 0 0 0.1 0"/>
<feBlend mode="normal" in2="BackgroundImageFix" result="effect1_dropShadow_5682_7144"/>
<feBlend mode="normal" in="SourceGraphic" in2="effect1_dropShadow_5682_7144" result="shape"/>
</filter>
<radialGradient id="paint0_radial_5682_7144" cx="0" cy="0" r="1" gradientUnits="userSpaceOnUse" gradientTransform="translate(38.4072 66.8374) scale(47.4375)">
<stop stop-color="#FFD676"/>
<stop offset="0.25" stop-color="#F2A454"/>
<stop offset="0.38" stop-color="#F05C3C"/>
<stop offset="0.7" stop-color="#C22F86"/>
<stop offset="0.96" stop-color="#6666AD"/>
<stop offset="0.99" stop-color="#5C6CB2"/>
</radialGradient>
<radialGradient id="paint1_radial_5682_7144" cx="0" cy="0" r="1" gradientUnits="userSpaceOnUse" gradientTransform="translate(38.4073 10.6026) scale(51.2325)">
<stop stop-color="#FFD676"/>
<stop offset="0.25" stop-color="#F2A454"/>
<stop offset="0.38" stop-color="#F05C3C"/>
<stop offset="0.7" stop-color="#C22F86"/>
<stop offset="0.96" stop-color="#6666AD"/>
<stop offset="0.99" stop-color="#5C6CB2"/>
</radialGradient>
<radialGradient id="paint2_radial_5682_7144" cx="0" cy="0" r="1" gradientUnits="userSpaceOnUse" gradientTransform="translate(33.7054 129.586) scale(64.0424)">
<stop stop-color="#FFD676"/>
<stop offset="0.25" stop-color="#F2A454"/>
<stop offset="0.38" stop-color="#F05C3C"/>
<stop offset="0.7" stop-color="#C22F86"/>
<stop offset="0.96" stop-color="#6666AD"/>
<stop offset="0.99" stop-color="#5C6CB2"/>
</radialGradient>
<radialGradient id="paint3_radial_5682_7144" cx="0" cy="0" r="1" gradientUnits="userSpaceOnUse" gradientTransform="translate(38.4073 10.6026) scale(51.2325)">
<stop stop-color="#FFD676"/>
<stop offset="0.25" stop-color="#F2A454"/>
<stop offset="0.38" stop-color="#F05C3C"/>
<stop offset="0.7" stop-color="#C22F86"/>
<stop offset="0.96" stop-color="#6666AD"/>
<stop offset="0.99" stop-color="#5C6CB2"/>
</radialGradient>
<radialGradient id="paint4_radial_5682_7144" cx="0" cy="0" r="1" gradientUnits="userSpaceOnUse" gradientTransform="translate(38.4073 10.6026) scale(51.2325)">
<stop stop-color="#FFD676"/>
<stop offset="0.25" stop-color="#F2A454"/>
<stop offset="0.38" stop-color="#F05C3C"/>
<stop offset="0.7" stop-color="#C22F86"/>
<stop offset="0.96" stop-color="#6666AD"/>
<stop offset="0.99" stop-color="#5C6CB2"/>
</radialGradient>
<radialGradient id="paint5_radial_5682_7144" cx="0" cy="0" r="1" gradientUnits="userSpaceOnUse" gradientTransform="translate(33.7054 17.1161) scale(64.0424)">
<stop stop-color="#FFD676"/>
<stop offset="0.25" stop-color="#F2A454"/>
<stop offset="0.38" stop-color="#F05C3C"/>
<stop offset="0.7" stop-color="#C22F86"/>
<stop offset="0.96" stop-color="#6666AD"/>
<stop offset="0.99" stop-color="#5C6CB2"/>
</radialGradient>
<clipPath id="clip0_5682_7144">
<rect x="28.9199" y="24.9199" width="44.16" height="44.16" rx="22.08" fill="white"/>
</clipPath>
<clipPath id="clip1_5682_7144">
<rect width="48" height="48" fill="white" transform="translate(139 79)"/>
</clipPath>
</defs>
</svg>
