<svg width="150" height="29" viewBox="0 0 150 29" fill="none" xmlns="http://www.w3.org/2000/svg">
<path d="M0.0699871 21.5138H7.78456C7.78456 21.5995 7.78456 21.771 7.78456 21.771C7.78456 22.371 8.04171 22.8853 8.64174 23.1424C9.15604 23.3996 9.84178 23.571 10.6132 23.571C12.3276 23.571 13.1848 23.0567 13.1848 22.0281C13.1848 21.6853 13.0133 21.3424 12.6705 21.2567C12.3276 21.0852 11.6418 20.9138 10.6132 20.7424C9.84178 20.5709 9.32748 20.4852 8.81317 20.3995C8.38459 20.3138 7.78456 20.2281 7.18454 20.0566C6.58452 19.8852 6.07021 19.7137 5.64162 19.628C5.21304 19.4566 4.78445 19.2852 4.35586 19.028C3.92727 18.7709 3.49869 18.5137 3.24154 18.2566C2.98439 17.9994 2.72723 17.6565 2.47008 17.3137C2.21293 16.9708 2.04149 16.5422 1.95578 16.0279C1.87006 15.5993 1.78434 14.9993 1.78434 14.485C1.78434 12.1706 2.72723 10.3705 4.5273 9.08478C6.32737 7.7133 8.81317 7.11328 11.899 7.11328C12.7562 7.11328 13.6991 7.199 14.5562 7.28472C15.4134 7.37043 16.2706 7.62759 17.2135 7.88474C18.1564 8.14189 18.9278 8.57048 19.6136 8.99907C20.2993 9.42765 20.8136 10.0277 21.2422 10.7991C21.6708 11.5706 21.9279 12.4278 21.9279 13.3707C21.9279 13.6278 21.9279 13.7992 21.9279 13.9707H14.3848V13.885C14.3848 13.2849 14.1277 12.8564 13.6991 12.5992C13.1848 12.342 12.5847 12.1706 11.8133 12.1706C11.2133 12.1706 10.699 12.2563 10.2704 12.5135C9.84178 12.7706 9.58463 13.1135 9.58463 13.5421C9.58463 13.885 9.75607 14.2278 10.0989 14.3993C10.4418 14.5707 10.9561 14.7421 11.8133 14.9136C12.0704 14.9993 12.499 14.9993 13.099 15.085C13.6134 15.1707 14.1277 15.2564 14.3848 15.2564C14.7277 15.3422 15.1563 15.4279 15.6706 15.5136C16.1849 15.5993 16.6135 15.685 16.9563 15.8565C17.2992 15.9422 17.6421 16.1136 18.0707 16.285C18.4992 16.4565 18.8421 16.6279 19.0993 16.7994C19.3564 16.9708 19.6136 17.2279 19.9564 17.5708C20.2136 17.828 20.4707 18.1708 20.6422 18.5137C20.8136 18.8566 20.8993 19.2852 21.0708 19.7137C21.2422 20.1423 21.2422 20.6566 21.2422 21.1709C21.2422 22.7996 20.7279 24.2568 19.785 25.3711C18.8421 26.5711 17.5564 27.4283 15.9277 27.9426C14.2991 28.4569 12.499 28.7998 10.4418 28.7998C9.58463 28.7998 8.72746 28.7141 7.87028 28.6284C7.01311 28.5426 6.15593 28.3712 5.21304 28.0283C4.27014 27.7712 3.41297 27.4283 2.72723 26.9997C2.04149 26.5711 1.44147 25.9711 1.01288 25.1997C0.584297 24.4282 0.327142 23.571 0.327142 22.6281C-0.101445 22.2853 -0.0157304 21.8567 0.0699871 21.5138Z" fill="white"/>
<path d="M25.0354 19.459L26.064 13.8016H23.2354L24.3497 7.62995H27.1784L27.9498 3.4298L36.1787 0.429688L34.8929 7.62995H38.7502L37.6359 13.8016H33.7786L32.8357 19.1161C32.75 19.6304 32.6643 20.059 32.6643 20.4876C32.6643 21.0876 32.8357 21.5162 33.0929 21.7733C33.35 22.0305 33.8643 22.2019 34.5501 22.2019C34.7215 22.2019 34.9786 22.2019 35.3215 22.2019C35.5787 22.2019 35.8358 22.1162 36.0072 22.1162H36.2644L35.1501 28.2879C33.6929 28.3736 32.4928 28.4593 31.5499 28.4593C30.6071 28.4593 29.6642 28.3736 28.8927 28.2021C28.1212 28.0307 27.4355 27.7736 26.7498 27.345C26.064 26.9164 25.5497 26.4021 25.2068 25.6306C24.864 24.8592 24.6925 24.002 24.6925 22.8877C24.6068 22.1162 24.7783 20.9162 25.0354 19.459Z" fill="white"/>
<path d="M51.4808 7.03125C54.7381 7.03125 57.3096 7.80271 59.1096 9.34562C60.9954 10.8885 61.9383 13.2886 61.9383 16.4602C61.9383 17.7459 61.7669 18.946 61.5097 20.146C61.1669 21.3461 60.7383 22.4604 60.0525 23.489C59.3668 24.5176 58.5953 25.4605 57.5667 26.232C56.5381 27.0034 55.4238 27.6034 54.0523 28.1177C52.6808 28.5463 51.1379 28.8035 49.5093 28.8035C46.252 28.8035 43.6805 28.032 41.8804 26.4891C39.9946 24.9462 39.0518 22.5461 39.0518 19.3746C39.0518 18.0888 39.2232 16.8888 39.4803 15.6887C39.8232 14.4887 40.2518 13.3743 40.9375 12.3457C41.6233 11.3171 42.3947 10.3742 43.4233 9.60277C44.3662 8.83132 45.5663 8.23129 46.9378 7.71699C48.3092 7.2884 49.8522 7.03125 51.4808 7.03125ZM54.0523 16.803C54.0523 15.7744 53.7952 14.9173 53.3666 14.2315C52.938 13.5458 52.1665 13.2886 51.2236 13.2886C50.2807 13.2886 49.5093 13.6315 48.8236 14.2315C48.1378 14.8315 47.7092 15.603 47.3664 16.3745C47.1092 17.2316 46.9378 18.0888 46.9378 19.0317C46.9378 20.0603 47.1949 20.9175 47.6235 21.6032C48.0521 22.289 48.8235 22.5461 49.7664 22.5461C50.7093 22.5461 51.4808 22.2032 52.1665 21.6032C52.8523 21.0032 53.2809 20.2317 53.6237 19.4603C53.8809 18.6031 54.0523 17.7459 54.0523 16.803Z" fill="white"/>
<path d="M62.3896 28.2002L66.0755 7.54231H73.7901L73.2758 10.1996C73.3615 10.1138 73.4472 10.0281 73.5329 9.85668C73.6186 9.68525 73.8758 9.51381 74.2187 9.17094C74.5615 8.82807 74.9901 8.57092 75.333 8.31377C75.7616 8.05661 76.2759 7.79946 76.9616 7.62803C77.6474 7.45659 78.3331 7.28516 79.1046 7.28516L80.7332 7.37087L79.6189 13.8854C79.1046 13.7997 78.5045 13.7997 77.9902 13.7997C76.1902 13.7997 74.733 14.314 73.7044 15.3426C72.6757 16.3712 71.99 17.9141 71.5614 20.0571L70.1042 28.2002H62.3896Z" fill="white"/>
<path d="M86.286 28.7141C85.4288 28.7141 84.6574 28.6284 83.8859 28.4569C83.2002 28.2855 82.5145 28.0283 81.8287 27.5998C81.143 27.1712 80.7144 26.6569 80.2858 25.8854C79.9429 25.114 79.7715 24.2568 79.7715 23.2282C79.7715 22.2853 79.9429 21.4281 80.2858 20.7424C80.6287 19.9709 81.0573 19.3709 81.5716 18.8566C82.0859 18.3423 82.7716 17.9137 83.6288 17.4851C84.4859 17.1422 85.3431 16.7994 86.2003 16.5422C87.0575 16.285 88.0861 16.1136 89.2004 15.9422C89.5433 15.8565 90.0576 15.8565 90.5719 15.7707C91.1719 15.685 91.5148 15.5993 91.8576 15.5993C92.1148 15.5993 92.4577 15.5136 92.8863 15.4279C93.3148 15.3422 93.572 15.2564 93.7434 15.1707C93.9149 15.085 94.172 14.9993 94.3435 14.8279C94.5149 14.7421 94.6863 14.5707 94.772 14.3993C94.8578 14.2278 94.8578 13.9707 94.8578 13.7992C94.8578 13.2849 94.6006 12.8564 94.172 12.5992C93.7434 12.342 93.1434 12.2563 92.5434 12.2563C91.7719 12.2563 91.0862 12.4278 90.5719 12.8564C90.0576 13.2849 89.7147 13.7992 89.5433 14.3993H82.2573C82.343 13.7135 82.6002 13.0278 82.8573 12.4278C83.1145 11.8277 83.5431 11.142 84.1431 10.4563C84.6574 9.77052 85.3431 9.25622 86.1146 8.74191C86.886 8.22761 87.8289 7.88474 89.029 7.54187C90.229 7.199 91.5148 7.11328 92.972 7.11328C93.8292 7.11328 94.6863 7.199 95.3721 7.28472C96.1435 7.37043 96.915 7.54187 97.7722 7.88474C98.6293 8.22761 99.3151 8.57048 99.9151 8.99907C100.515 9.42765 101.029 10.1134 101.372 10.8848C101.715 11.6563 101.972 12.5992 101.972 13.7135C101.972 14.485 101.887 15.4279 101.629 16.6279L100.515 22.7139C100.258 24.0853 100.172 25.3711 100.172 26.5711C100.172 26.914 100.172 27.2569 100.172 27.514C100.172 27.7712 100.172 28.0283 100.258 28.1141V28.2855H92.8863C92.8005 27.8569 92.8005 27.4283 92.8005 26.914V26.4854C91.0005 27.9426 88.8575 28.7141 86.286 28.7141ZM89.7147 23.8282C90.829 23.8282 91.6862 23.4853 92.3719 22.8853C93.0577 22.2853 93.4006 21.4281 93.572 20.4852L93.8292 18.8566C93.572 19.028 93.3148 19.2852 92.8863 19.4566C92.5434 19.628 92.2005 19.7137 91.8576 19.7995C91.6005 19.8852 91.1719 19.9709 90.7433 20.1423C90.3147 20.2281 89.9719 20.3138 89.8004 20.3995C88.4289 20.8281 87.7432 21.5138 87.7432 22.371C87.7432 23.3139 88.429 23.8282 89.7147 23.8282Z" fill="white"/>
<path d="M111.51 28.7154C109.795 28.7154 108.338 28.2868 107.052 27.3439C105.852 26.401 104.909 25.2867 104.309 23.8295C103.709 22.3723 103.452 20.7436 103.452 18.9436C103.452 17.7435 103.624 16.6292 103.881 15.4291C104.138 14.3148 104.566 13.2005 105.081 12.1719C105.595 11.1433 106.281 10.2861 107.052 9.51464C107.824 8.74318 108.767 8.14316 109.881 7.71457C110.995 7.28599 112.195 7.02883 113.481 7.02883C116.31 7.02883 118.281 7.88601 119.396 9.68608L121.11 0H128.825L123.853 28.2868H116.138L116.31 27.0867C114.938 28.1153 113.395 28.7154 111.51 28.7154ZM111.338 18.8578C111.338 19.4579 111.424 20.0579 111.595 20.5722C111.767 21.0865 112.024 21.5151 112.452 21.9437C112.881 22.2865 113.395 22.5437 113.995 22.5437C114.681 22.5437 115.367 22.3723 115.881 22.0294C116.395 21.6865 116.824 21.2579 117.167 20.6579C117.51 20.1436 117.681 19.5436 117.853 18.8578C118.024 18.2578 118.11 17.5721 118.11 16.8863C118.11 16.2863 118.024 15.6863 117.853 15.172C117.681 14.6577 117.424 14.2291 116.996 13.8005C116.567 13.4576 116.053 13.2005 115.453 13.2005C114.767 13.2005 114.081 13.3719 113.567 13.7148C113.053 14.0577 112.624 14.4863 112.281 15.0863C112.024 15.6006 111.767 16.2006 111.595 16.8863C111.424 17.4864 111.338 18.1721 111.338 18.8578Z" fill="white"/>
<path d="M149.59 19.9746H135.361C135.618 22.0318 136.646 23.1461 138.446 23.1461C139.561 23.1461 140.589 22.7175 141.446 21.7747H148.904C148.047 23.8319 146.675 25.5462 144.789 26.832C142.904 28.1177 140.675 28.7178 137.846 28.7178C136.732 28.7178 135.618 28.632 134.675 28.3749C133.646 28.1177 132.789 27.7749 131.932 27.2606C131.075 26.7463 130.389 26.1462 129.789 25.4605C129.189 24.7748 128.675 23.8319 128.332 22.8033C127.989 21.7747 127.817 20.5746 127.817 19.2888C127.817 18.0888 127.989 16.8888 128.246 15.6887C128.503 14.4887 129.017 13.3743 129.703 12.3457C130.389 11.3171 131.16 10.3742 132.103 9.60277C133.046 8.83132 134.16 8.14558 135.532 7.71699C136.903 7.2884 138.361 7.03125 139.989 7.03125C141.618 7.03125 143.075 7.2884 144.361 7.71699C145.647 8.14558 146.675 8.83132 147.532 9.68849C148.304 10.5457 148.99 11.4886 149.332 12.6029C149.761 13.7172 149.932 14.9173 149.932 16.2887C150.104 17.5745 149.932 18.7745 149.59 19.9746ZM139.818 12.7743C138.875 12.7743 138.018 13.0315 137.332 13.6315C136.646 14.2315 136.132 15.003 135.789 15.9459H142.561C142.475 14.8315 142.218 14.0601 141.875 13.5458C141.361 13.0315 140.761 12.7743 139.818 12.7743Z" fill="white"/>
</svg>
