<svg width="150" height="29" viewBox="0 0 150 29" fill="none" xmlns="http://www.w3.org/2000/svg">
<path d="M0.0699871 21.6634H7.78456C7.78456 21.7497 7.78456 21.9223 7.78456 21.9223C7.78456 22.5265 8.04171 23.0444 8.64174 23.3033C9.15604 23.5622 9.84178 23.7348 10.6132 23.7348C12.3276 23.7348 13.1848 23.217 13.1848 22.1813C13.1848 21.836 13.0133 21.4908 12.6705 21.4045C12.3276 21.2319 11.6418 21.0593 10.6132 20.8866C9.84178 20.714 9.32748 20.6277 8.81317 20.5414C8.38459 20.4551 7.78456 20.3688 7.18454 20.1962C6.58452 20.0236 6.07021 19.8509 5.64162 19.7646C5.21304 19.592 4.78445 19.4194 4.35586 19.1605C3.92727 18.9015 3.49869 18.6426 3.24154 18.3837C2.98439 18.1248 2.72723 17.7795 2.47008 17.4343C2.21293 17.0891 2.04149 16.6575 1.95578 16.1397C1.87006 15.7081 1.78434 15.104 1.78434 14.5861C1.78434 12.2558 2.72723 10.4433 4.5273 9.14867C6.32737 7.76773 8.81317 7.16357 11.899 7.16357C12.7562 7.16357 13.6991 7.24988 14.5562 7.33619C15.4134 7.4225 16.2706 7.68143 17.2135 7.94035C18.1564 8.19928 18.9278 8.63082 19.6136 9.06236C20.2993 9.49391 20.8136 10.0981 21.2422 10.8748C21.6708 11.6516 21.9279 12.5147 21.9279 13.4641C21.9279 13.723 21.9279 13.8956 21.9279 14.0683H14.3848V13.982C14.3848 13.3778 14.1277 12.9462 13.6991 12.6873C13.1848 12.4284 12.5847 12.2558 11.8133 12.2558C11.2133 12.2558 10.699 12.3421 10.2704 12.601C9.84178 12.8599 9.58463 13.2052 9.58463 13.6367C9.58463 13.982 9.75607 14.3272 10.0989 14.4998C10.4418 14.6724 10.9561 14.845 11.8133 15.0177C12.0704 15.104 12.499 15.104 13.099 15.1903C13.6134 15.2766 14.1277 15.3629 14.3848 15.3629C14.7277 15.4492 15.1563 15.5355 15.6706 15.6218C16.1849 15.7081 16.6135 15.7944 16.9563 15.9671C17.2992 16.0534 17.6421 16.226 18.0707 16.3986C18.4992 16.5712 18.8421 16.7438 19.0993 16.9164C19.3564 17.0891 19.6136 17.348 19.9564 17.6932C20.2136 17.9521 20.4707 18.2974 20.6422 18.6426C20.8136 18.9879 20.8993 19.4194 21.0708 19.8509C21.2422 20.2825 21.2422 20.8003 21.2422 21.3182C21.2422 22.958 20.7279 24.4253 19.785 25.5473C18.8421 26.7556 17.5564 27.6187 15.9277 28.1366C14.2991 28.6544 12.499 28.9996 10.4418 28.9996C9.58463 28.9996 8.72746 28.9133 7.87028 28.827C7.01311 28.7407 6.15593 28.5681 5.21304 28.2229C4.27014 27.9639 3.41297 27.6187 2.72723 27.1872C2.04149 26.7556 1.44147 26.1515 1.01288 25.3747C0.584297 24.5979 0.327142 23.7348 0.327142 22.7854C-0.101445 22.4402 -0.0157304 22.0087 0.0699871 21.6634Z" fill="#111827"/>
<path d="M25.0364 19.5917L26.065 13.8953H23.2363L24.3507 7.68107H27.1793L27.9508 3.45195L36.1797 0.431152L34.8939 7.68107H38.7512L37.6369 13.8953H33.7796L32.8367 19.2464C32.751 19.7643 32.6652 20.1958 32.6652 20.6274C32.6652 21.2315 32.8367 21.6631 33.0938 21.922C33.351 22.1809 33.8653 22.3535 34.551 22.3535C34.7225 22.3535 34.9796 22.3535 35.3225 22.3535C35.5796 22.3535 35.8368 22.2672 36.0082 22.2672H36.2654L35.151 28.4814C33.6939 28.5678 32.4938 28.6541 31.5509 28.6541C30.608 28.6541 29.6651 28.5678 28.8937 28.3951C28.1222 28.2225 27.4365 27.9636 26.7507 27.5321C26.065 27.1005 25.5507 26.5827 25.2078 25.8059C24.865 25.0291 24.6935 24.166 24.6935 23.044C24.6078 22.2672 24.7792 21.0589 25.0364 19.5917Z" fill="#111827"/>
<path d="M51.4808 7.07764C54.7381 7.07764 57.3096 7.85441 59.1096 9.40797C60.9954 10.9615 61.9383 13.3782 61.9383 16.5716C61.9383 17.8662 61.7669 19.0745 61.5097 20.2829C61.1669 21.4912 60.7383 22.6132 60.0525 23.6489C59.3668 24.6846 58.5953 25.634 57.5667 26.4108C56.5381 27.1875 55.4238 27.7917 54.0523 28.3095C52.6808 28.7411 51.1379 29 49.5093 29C46.252 29 43.6805 28.2232 41.8804 26.6697C39.9946 25.1161 39.0518 22.6995 39.0518 19.5061C39.0518 18.2114 39.2232 17.0031 39.4803 15.7948C39.8232 14.5865 40.2518 13.4645 40.9375 12.4288C41.6233 11.3931 42.3947 10.4437 43.4233 9.66689C44.3662 8.89012 45.5663 8.28596 46.9378 7.76811C48.3092 7.33656 49.8522 7.07764 51.4808 7.07764ZM54.0523 16.9168C54.0523 15.8811 53.7952 15.018 53.3666 14.3276C52.938 13.6371 52.1665 13.3782 51.2236 13.3782C50.2807 13.3782 49.5093 13.7234 48.8236 14.3276C48.1378 14.9317 47.7092 15.7085 47.3664 16.4853C47.1092 17.3484 46.9378 18.2114 46.9378 19.1608C46.9378 20.1965 47.1949 21.0596 47.6235 21.7501C48.0521 22.4406 48.8235 22.6995 49.7664 22.6995C50.7093 22.6995 51.4808 22.3543 52.1665 21.7501C52.8523 21.1459 53.2809 20.3692 53.6237 19.5924C53.8809 18.7293 54.0523 17.8662 54.0523 16.9168Z" fill="#111827"/>
<path d="M62.3896 28.3957L66.0755 7.59535H73.7901L73.2758 10.2709C73.3615 10.1846 73.4472 10.0983 73.5329 9.92568C73.6186 9.75307 73.8758 9.58045 74.2187 9.23521C74.5615 8.88998 74.9901 8.63105 75.333 8.37213C75.7616 8.1132 76.2759 7.85428 76.9616 7.68166C77.6474 7.50904 78.3331 7.33643 79.1046 7.33643L80.7332 7.42273L79.6189 13.9822C79.1046 13.8959 78.5045 13.8959 77.9902 13.8959C76.1902 13.8959 74.733 14.4137 73.7044 15.4494C72.6757 16.4851 71.99 18.0387 71.5614 20.1964L70.1042 28.3957H62.3896Z" fill="#111827"/>
<path d="M86.286 28.9133C85.4288 28.9133 84.6574 28.827 83.8859 28.6544C83.2002 28.4818 82.5145 28.2229 81.8287 27.7913C81.143 27.3598 80.7144 26.8419 80.2858 26.0652C79.9429 25.2884 79.7715 24.4253 79.7715 23.3896C79.7715 22.4402 79.9429 21.5771 80.2858 20.8866C80.6287 20.1099 81.0573 19.5057 81.5716 18.9879C82.0859 18.47 82.7716 18.0385 83.6288 17.6069C84.4859 17.2617 85.3431 16.9164 86.2003 16.6575C87.0575 16.3986 88.0861 16.226 89.2004 16.0534C89.5433 15.9671 90.0576 15.9671 90.5719 15.8807C91.1719 15.7944 91.5148 15.7081 91.8576 15.7081C92.1148 15.7081 92.4577 15.6218 92.8863 15.5355C93.3148 15.4492 93.572 15.3629 93.7434 15.2766C93.9149 15.1903 94.172 15.104 94.3435 14.9313C94.5149 14.845 94.6863 14.6724 94.772 14.4998C94.8578 14.3272 94.8578 14.0683 94.8578 13.8956C94.8578 13.3778 94.6006 12.9462 94.172 12.6873C93.7434 12.4284 93.1434 12.3421 92.5434 12.3421C91.7719 12.3421 91.0862 12.5147 90.5719 12.9462C90.0576 13.3778 89.7147 13.8956 89.5433 14.4998H82.2573C82.343 13.8093 82.6002 13.1189 82.8573 12.5147C83.1145 11.9105 83.5431 11.2201 84.1431 10.5296C84.6574 9.83914 85.3431 9.32129 86.1146 8.80344C86.886 8.28559 87.8289 7.94035 89.029 7.59512C90.229 7.24988 91.5148 7.16357 92.972 7.16357C93.8292 7.16357 94.6863 7.24988 95.3721 7.33619C96.1435 7.4225 96.915 7.59512 97.7722 7.94035C98.6293 8.28559 99.3151 8.63082 99.9151 9.06236C100.515 9.49391 101.029 10.1844 101.372 10.9612C101.715 11.7379 101.972 12.6873 101.972 13.8093C101.972 14.5861 101.887 15.5355 101.629 16.7438L100.515 22.8717C100.258 24.2527 100.172 25.5473 100.172 26.7556C100.172 27.1009 100.172 27.4461 100.172 27.705C100.172 27.9639 100.172 28.2229 100.258 28.3092V28.4818H92.8863C92.8005 28.0503 92.8005 27.6187 92.8005 27.1009V26.6693C91.0005 28.1366 88.8575 28.9133 86.286 28.9133ZM89.7147 23.9937C90.829 23.9937 91.6862 23.6485 92.3719 23.0444C93.0577 22.4402 93.4006 21.5771 93.572 20.6277L93.8292 18.9879C93.572 19.1605 93.3148 19.4194 92.8863 19.592C92.5434 19.7646 92.2005 19.8509 91.8576 19.9372C91.6005 20.0236 91.1719 20.1099 90.7433 20.2825C90.3147 20.3688 89.9719 20.4551 89.8004 20.5414C88.4289 20.9729 87.7432 21.6634 87.7432 22.5265C87.7432 23.4759 88.429 23.9937 89.7147 23.9937Z" fill="#111827"/>
<path d="M111.51 28.9134C109.795 28.9134 108.338 28.4818 107.052 27.5324C105.852 26.5831 104.909 25.461 104.309 23.9938C103.709 22.5265 103.452 20.8867 103.452 19.0742C103.452 17.8659 103.624 16.7439 103.881 15.5355C104.138 14.4135 104.566 13.2915 105.081 12.2558C105.595 11.2201 106.281 10.357 107.052 9.58026C107.824 8.80348 108.767 8.19932 109.881 7.76777C110.995 7.33623 112.195 7.07731 113.481 7.07731C116.31 7.07731 118.281 7.94039 119.396 9.75287L121.11 0H128.825L123.853 28.4818H116.138L116.31 27.2735C114.938 28.3092 113.395 28.9134 111.51 28.9134ZM111.338 18.9879C111.338 19.5921 111.424 20.1962 111.595 20.7141C111.767 21.2319 112.024 21.6635 112.452 22.095C112.881 22.4402 113.395 22.6992 113.995 22.6992C114.681 22.6992 115.367 22.5265 115.881 22.1813C116.395 21.8361 116.824 21.4045 117.167 20.8004C117.51 20.2825 117.681 19.6784 117.853 18.9879C118.024 18.3837 118.11 17.6933 118.11 17.0028C118.11 16.3986 118.024 15.7945 117.853 15.2766C117.681 14.7588 117.424 14.3272 116.996 13.8957C116.567 13.5505 116.053 13.2915 115.453 13.2915C114.767 13.2915 114.081 13.4641 113.567 13.8094C113.053 14.1546 112.624 14.5862 112.281 15.1903C112.024 15.7082 111.767 16.3123 111.595 17.0028C111.424 17.607 111.338 18.2974 111.338 18.9879Z" fill="#111827"/>
<path d="M149.59 20.1102H135.361C135.618 22.1816 136.646 23.3037 138.446 23.3037C139.561 23.3037 140.589 22.8721 141.446 21.9227H148.904C148.047 23.9941 146.675 25.7203 144.789 27.0149C142.904 28.3095 140.675 28.9137 137.846 28.9137C136.732 28.9137 135.618 28.8274 134.675 28.5685C133.646 28.3095 132.789 27.9643 131.932 27.4465C131.075 26.9286 130.389 26.3245 129.789 25.634C129.189 24.9435 128.675 23.9941 128.332 22.9584C127.989 21.9227 127.817 20.7144 127.817 19.4198C127.817 18.2114 127.989 17.0031 128.246 15.7948C128.503 14.5865 129.017 13.4645 129.703 12.4288C130.389 11.3931 131.16 10.4437 132.103 9.66689C133.046 8.89012 134.16 8.19965 135.532 7.76811C136.903 7.33656 138.361 7.07764 139.989 7.07764C141.618 7.07764 143.075 7.33656 144.361 7.76811C145.647 8.19965 146.675 8.89012 147.532 9.7532C148.304 10.6163 148.99 11.5657 149.332 12.6877C149.761 13.8097 149.932 15.018 149.932 16.399C150.104 17.6936 149.932 18.9019 149.59 20.1102ZM139.818 12.8603C138.875 12.8603 138.018 13.1192 137.332 13.7234C136.646 14.3276 136.132 15.1043 135.789 16.0537H142.561C142.475 14.9317 142.218 14.1549 141.875 13.6371C141.361 13.1192 140.761 12.8603 139.818 12.8603Z" fill="#111827"/>
</svg>
